:SAMPLES-PER-SECOND 30
:FULLY-SPECIFIED
:DEGREES
1538
root  0.811437 39.7796 -3.00773 96.6873 -82.963 -114.507
RightUpLeg  19.3288 -14.1743 -2.85732
RightLeg  13.9677 -1.41376 1.35899
RightFoot  -10.7905 -0.0775266 0.902035
RightToes  -4.65663e-010 0 -3.6325e-017
Spine  -13.3011 1.99441 -2.31765
Spine1  30.2404 6.70008 -7.86574
HEad  26.0629 2.80676 11.9825
LeftShoulder1  4.7361 -9.21201 -31.1926
LeftArm  44.7645 40.5513 -0.344766
LeftForeArm  -151.063 -65.5231 -162.251
LeftHand  -0.244104 0.0205437 5.32207
RightShoulder  3.91073 8.04007 27.8657
RightArm  51.3459 -40.2161 9.25563
RightForeArm  176.338 73.0772 149.388
RightHand  -4.35199 16.9865 -22.6325
LeftUpLeg  15.5897 7.28865 16.3006
LeftLeg  21.2424 6.37745 3.06019
LeftFoot  -15.6634 -0.120923 -5.68564
LeftToes  4.18335e-011 1.59304e-011 3.38507e-012
1539
root  0.727261 39.836 -2.42056 99.1497 -84.3266 -117.557
RightUpLeg  19.9775 -13.7553 -5.33646
RightLeg  14.0493 -0.992827 0.986927
RightFoot  -10.6749 -0.0831933 1.85518
RightToes  -4.65663e-010 0 -3.6325e-017
Spine  -12.997 2.06155 -0.989914
Spine1  30.3246 6.63618 -8.21353
HEad  25.4477 3.03217 10.3675
LeftShoulder1  4.77412 -9.16242 -31.6399
LeftArm  44.6391 40.3663 -0.0551736
LeftForeArm  -151.094 -65.7145 -162.09
LeftHand  -0.244104 0.0205437 5.32207
RightShoulder  3.91381 8.02739 27.9316
RightArm  51.6032 -40.3835 8.75462
RightForeArm  177.897 72.528 150.59
RightHand  -4.23732 16.8619 -22.1803
LeftUpLeg  17.1247 8.49312 14.3737
LeftLeg  19.8609 5.88627 2.68824
LeftFoot  -15.3568 -0.0795923 -4.89145
LeftToes  4.18335e-011 1.59304e-011 3.38507e-012
1540
root  0.667516 39.8866 -1.79964 105.886 -85.7254 -124.704
RightUpLeg  20.3166 -13.0495 -7.85137
RightLeg  14.1048 -0.668436 0.634912
RightFoot  -10.5459 -0.0914856 2.87252
RightToes  -4.65663e-010 0 -3.6325e-017
Spine  -12.608 2.17061 0.501932
Spine1  30.3167 6.65581 -8.75638
HEad  24.8181 3.26113 8.53456
LeftShoulder1  4.8436 -9.21361 -32.0357
LeftArm  44.5779 40.2215 0.253678
LeftForeArm  -151.16 -65.8999 -161.93
LeftHand  -0.244104 0.0205437 5.32207
RightShoulder  3.88181 7.92191 27.9658
RightArm  51.8185 -40.6417 8.40604
RightForeArm  178.454 71.9862 151.57
RightHand  -4.07403 16.1972 -21.9947
LeftUpLeg  18.551 10.0367 12.3784
LeftLeg  18.3211 5.32005 2.274
LeftFoot  -14.9002 -0.0375382 -4.07826
LeftToes  4.18335e-011 1.59304e-011 3.38507e-012
1541
root  0.635533 39.9277 -1.15313 122.9 -86.9245 -141.85
RightUpLeg  20.1534 -12.0368 -10.2558
RightLeg  14.2266 -0.480208 0.254546
RightFoot  -10.4364 -0.102067 3.95131
RightToes  -4.65663e-010 0 -3.6325e-017
Spine  -12.2595 2.31913 2.15911
Spine1  30.2068 6.73524 -9.44848
HEad  24.2296 3.55576 6.49757
LeftShoulder1  4.92266 -9.29472 -32.4129
LeftArm  44.5405 40.0491 0.544611
LeftForeArm  -151.246 -66.1142 -161.741
LeftHand  -0.244104 0.0205437 5.32207
RightShoulder  3.8473 7.81376 27.9859
RightArm  52.0615 -40.9541 8.11285
RightForeArm  178.566 71.4968 152.354
RightHand  -3.91974 15.4105 -21.964
LeftUpLeg  19.7008 11.4003 10.1189
LeftLeg  16.6805 5.28393 1.8251
LeftFoot  -14.3451 0.00463658 -3.09787
LeftToes  4.18335e-011 1.59304e-011 3.38507e-012
1542
root  0.630232 39.954 -0.492703 153.775 -87.4084 -172.521
RightUpLeg  19.3793 -10.752 -12.4135
RightLeg  14.5273 -0.451748 -0.119022
RightFoot  -10.3391 -0.114274 5.03054
RightToes  -4.65663e-010 0 -3.6325e-017
Spine  -12.0193 2.46862 3.95244
Spine1  30.0011 6.79341 -10.1351
HEad  23.6293 4.01086 4.20049
LeftShoulder1  4.96609 -9.29924 -32.7378
LeftArm  44.455 39.8541 0.74811
LeftForeArm  -151.446 -66.3838 -161.491
LeftHand  -0.244104 0.0205437 5.32207
RightShoulder  3.84008 7.79092 27.9909
RightArm  52.3916 -41.2928 7.7207
RightForeArm  179.357 71.0307 153.155
RightHand  -3.80786 15.0354 -21.7401
LeftUpLeg  20.4014 12.0002 7.5493
LeftLeg  15.0279 6.2145 1.13241
LeftFoot  -13.7935 0.0422939 -1.88572
LeftToes  4.18335e-011 1.59304e-011 3.38507e-012
1543
root  0.655343 39.9573 0.1632 -174.72 -86.9256 156.437
RightUpLeg  18.1036 -9.28 -14.3824
RightLeg  15.0662 -0.623276 -0.422703
RightFoot  -10.2743 -0.126407 6.07236
RightToes  -4.65663e-010 0 -3.6325e-017
Spine  -11.7595 2.5541 5.69764
Spine1  29.6813 6.74861 -10.7224
HEad  22.8829 4.62182 1.69418
LeftShoulder1  4.98579 -9.27391 -32.9675
LeftArm  44.3444 39.753 0.868108
LeftForeArm  -151.803 -66.6737 -161.205
LeftHand  -0.244104 0.0205437 5.32207
RightShoulder  3.84719 7.82402 27.9533
RightArm  52.7633 -41.6337 7.28675
RightForeArm  -179.303 70.5835 153.963
RightHand  -3.74163 15.0251 -21.3883
LeftUpLeg  20.6259 11.6777 4.73112
LeftLeg  13.4412 8.00578 0.0903012
LeftFoot  -13.284 0.0694271 -0.607639
LeftToes  4.18335e-011 1.59304e-011 3.38507e-012
1544
root  0.723681 39.9292 0.797777 -155.168 -85.8988 137.498
RightUpLeg  16.4642 -7.67425 -16.2787
RightLeg  15.8841 -1.08108 -0.648451
RightFoot  -10.303 -0.134153 7.07072
RightToes  -4.65663e-010 0 -3.6325e-017
Spine  -11.296 2.51622 7.20453
Spine1  29.2098 6.56314 -11.2116
HEad  21.9403 5.26714 -0.851061
LeftShoulder1  5.03652 -9.33624 -33.1722
LeftArm  44.3728 39.8066 1.04962
LeftForeArm  -152.224 -66.9477 -160.921
LeftHand  -0.244104 0.0205437 5.32207
RightShoulder  3.83925 7.83088 27.86
RightArm  53.0834 -41.947 6.98705
RightForeArm  -178.595 70.2294 154.535
RightHand  -3.70882 14.9333 -21.3009
LeftUpLeg  20.377 10.7146 1.75163
LeftLeg  12.0835 10.2604 -1.11819
LeftFoot  -12.8291 0.0841013 0.540955
LeftToes  4.18335e-011 1.59304e-011 3.38507e-012
1545
root  0.843342 39.8702 1.4043 -143.278 -84.6577 126.39
RightUpLeg  14.4193 -6.06871 -18.1801
RightLeg  17.0316 -1.71133 -0.826903
RightFoot  -10.4388 -0.134068 7.99724
RightToes  -4.65663e-010 0 -3.6325e-017
Spine  -10.6358 2.3678 8.47736
Spine1  28.57 6.28873 -11.698
HEad  20.836 5.84736 -3.35029
LeftShoulder1  5.12471 -9.47696 -33.4257
LeftArm  44.674 39.9115 1.41343
LeftForeArm  -152.633 -67.2318 -160.623
LeftHand  -0.244104 0.0205437 5.32207
RightShoulder  3.8049 7.77608 27.7157
RightArm  53.3004 -42.2535 6.88021
RightForeArm  -178.81 70.012 154.795
RightHand  -3.66746 14.5512 -21.4602
LeftUpLeg  19.5861 9.45827 -1.34738
LeftLeg  11.0855 12.7181 -2.21155
LeftFoot  -12.4561 0.090127 1.56764
LeftToes  4.18335e-011 1.59304e-011 3.38507e-012
1546
root  1.00663 39.7859 1.98066 -135.995 -83.242 120.152
RightUpLeg  11.8173 -4.77314 -20.151
RightLeg  18.5573 -2.08266 -0.983952
RightFoot  -10.6314 -0.126841 8.77815
RightToes  -4.65663e-010 0 -3.6325e-017
Spine  -9.91578 2.19802 9.66172
Spine1  27.7852 6.04868 -12.2848
HEad  19.5676 6.37286 -5.85803
LeftShoulder1  5.19052 -9.57238 -33.64
LeftArm  45.1391 39.957 1.84678
LeftForeArm  -153.059 -67.5529 -160.28
LeftHand  -0.244104 0.0205437 5.32207
RightShoulder  3.75496 7.69234 27.5158
RightArm  53.4419 -42.6355 6.89819
RightForeArm  -178.874 69.8812 154.957
RightHand  -3.58519 14.1424 -21.419
LeftUpLeg  18.2255 7.99616 -4.55621
LeftLeg  10.3717 15.405 -3.0795
LeftFoot  -12.1754 0.0919382 2.57116
LeftToes  4.18335e-011 1.59304e-011 3.38507e-012
1547
root  1.19962 39.6822 2.51776 -132.039 -81.6413 117.481
RightUpLeg  8.65754 -3.70935 -22.1359
RightLeg  20.4222 -2.17269 -1.10464
RightFoot  -10.8294 -0.115407 9.30436
RightToes  -4.65663e-010 0 -3.6325e-017
Spine  -9.13907 2.07809 10.8078
Spine1  26.8823 5.93891 -12.9796
HEad  18.1322 6.87236 -8.3596
LeftShoulder1  5.18948 -9.56052 -33.6675
LeftArm  45.4708 40.0014 2.08131
LeftForeArm  -153.544 -67.8776 -159.92
LeftHand  -0.244104 0.0205437 5.32207
RightShoulder  3.7155 7.64398 27.3006
RightArm  53.5992 -43.1267 6.94854
RightForeArm  -178.174 69.7926 155.157
RightHand  -3.50775 14.0342 -21.0886
LeftUpLeg  16.4623 6.36335 -7.76789
LeftLeg  9.71715 18.3176 -3.80528
LeftFoot  -11.9243 0.0898246 3.56394
LeftToes  4.18335e-011 1.59304e-011 3.38507e-012
1548
root  1.41766 39.5706 3.00459 -130.254 -79.9261 117.056
RightUpLeg  5.22034 -2.67396 -24.0063
RightLeg  22.3972 -2.24143 -1.22811
RightFoot  -10.9734 -0.105155 9.44216
RightToes  -4.65663e-010 0 -3.6325e-017
Spine  -8.12561 1.98003 11.8932
Spine1  25.8546 5.95259 -13.7479
HEad  16.6302 7.30032 -10.7045
LeftShoulder1  5.14406 -9.49436 -33.5211
LeftArm  45.4934 40.1779 1.99826
LeftForeArm  -154.086 -68.1923 -159.555
LeftHand  -0.244104 0.0205437 5.32207
RightShoulder  3.70893 7.66168 27.1851
RightArm  53.8534 -43.6442 6.94868
RightForeArm  -177.452 69.7655 155.28
RightHand  -3.50061 14.2284 -20.8473
LeftUpLeg  14.5882 4.80687 -10.737
LeftLeg  8.94489 21.1773 -4.49755
LeftFoot  -11.5886 0.0793652 4.50814
LeftToes  4.18335e-011 1.59304e-011 3.38507e-012
